<svg width="150" height="150" viewBox="0 0 150 150" fill="none" xmlns="http://www.w3.org/2000/svg">
<path d="M137.398 92.6981C137.165 92.2803 136.648 92.1299 136.231 92.3639C135.332 92.8653 132.315 93.8681 131.365 94.2191C127.799 94.8041 123.432 94.6704 121.283 89.4556C120.633 87.8845 119.999 86.4638 118.883 84.9762C117.633 83.2881 113.533 81.2824 109.7 84.9094C108.783 85.7785 107.983 86.7646 107.333 87.8511C107.067 88.2689 106.834 88.6868 106.6 89.0879C106.584 89.0378 106.567 88.9876 106.55 88.9208C106.217 87.7508 105.134 83.4218 100.634 82.7198C100.017 82.6697 97.5008 82.3855 94.0344 86.1964C92.8678 87.5001 91.8179 88.8873 90.868 90.3582C90.7013 89.5893 90.5013 88.8873 90.3013 88.5698C87.3515 84.0235 82.8852 87.6505 80.9686 89.0043C76.6689 92.0463 74.6691 96.1245 72.0359 86.8649C71.7026 85.5445 71.4193 84.2241 71.2193 82.887C73.8191 78.4243 79.1521 64.8691 76.1023 55.7766C75.9023 55.2084 74.8357 52.2667 72.2859 52.4505C71.9193 52.484 69.0028 52.1831 67.4196 60.3396C65.9364 68.2287 66.253 78.4076 66.6196 81.7838C66.653 82.1348 66.7363 82.8201 66.8696 83.7227C64.3531 88.0516 61.0367 92.9656 59.0202 93.1996C56.4037 93.5004 57.137 91.0769 55.5371 85.6949C55.2538 84.9929 54.3705 81.6668 50.4041 81.834C48.4542 81.9175 46.4044 82.419 43.5879 85.5111C39.0215 90.5253 28.6056 98.0467 21.1561 93.3166C20.3395 92.6814 16.3231 89.3888 17.8064 79.5107C18.2563 76.7863 19.0563 74.1455 20.1895 71.6216C21.2894 69.1647 22.656 66.8581 24.2892 64.7187C31.9387 55.2919 38.5716 54.1888 39.8715 54.2557C43.2213 54.2557 44.1045 58.6013 44.0879 58.5679C44.2212 59.32 44.9378 59.8382 45.6878 59.7045C46.371 59.5875 46.8543 58.9858 46.8377 58.3005C46.821 57.3645 46.621 56.4285 46.271 55.5594C45.7544 53.8545 44.2379 52.25 43.3546 51.665C39.1549 48.7233 29.6555 51.0967 20.4728 61.7269C18.5563 64.1337 16.9397 66.7745 15.6732 69.5658C14.3399 72.4741 13.4067 75.5495 12.8734 78.6917C10.3902 96.2248 21.0395 98.9994 22.8393 99.3504C32.1554 100.437 39.0215 95.3557 42.2713 92.2302C43.4379 98.0801 49.2708 98.147 51.8373 95.5061C52.4873 94.8041 53.0206 94.0186 53.4206 93.1494C54.9371 98.6818 59.7868 96.7931 60.3701 96.5591C63.0699 95.5396 65.903 91.7622 67.9195 88.5865C69.1861 92.9321 71.6526 97.5954 76.369 97.094C79.2188 97.0271 86.3349 89.4222 87.0016 90.425C87.6515 91.244 87.8348 92.7483 87.7848 95.0047C87.7348 97.2611 89.5181 97.3614 90.318 97.1441C91.5679 96.7931 92.3512 94.3361 93.6511 92.1967C94.451 90.8596 95.3843 89.606 96.4509 88.4528C96.9675 87.9012 99.284 85.4944 100.917 86.3134C102.55 87.1323 102.717 88.8038 102.834 89.7397C102.95 90.659 102.967 91.6619 103 92.7316C102.95 96.4588 104.7 96.977 105.184 97.1107C109.217 98.1971 109.467 90.5922 112.433 87.7675C112.716 87.4833 115.3 84.8091 116.766 89.1715C118.899 97.0605 125.466 100.019 134.298 95.6231C135.932 94.8041 136.265 94.4866 137.148 93.818C137.498 93.5506 137.598 93.0826 137.398 92.6981ZM50.9541 91.0936C49.1875 94.7373 45.3044 94.52 45.3711 90.542C45.4211 86.4805 50.4708 83.9232 51.8207 86.7479C51.9207 86.9819 52.0206 87.2326 52.0873 87.5001C51.8373 88.2689 51.7373 89.4723 50.9541 91.0936ZM72.6692 56.9132C73.4025 58.2838 75.0024 66.9417 70.6527 76.3852C70.636 76.0843 70.636 75.7835 70.6194 75.4826C70.5694 60.1223 72.5192 56.6458 72.6692 56.9132Z" fill="#4276CE"/>
</svg>
